%TF.GenerationSoftware,KiCad,Pcbnew,8.0.8*%
%TF.CreationDate,2025-07-06T22:48:32+02:00*%
%TF.ProjectId,custom locker,63757374-6f6d-4206-9c6f-636b65722e6b,rev?*%
%TF.SameCoordinates,Original*%
%TF.FileFunction,Copper,L1,Top*%
%TF.FilePolarity,Positive*%
%FSLAX46Y46*%
G04 Gerber Fmt 4.6, Leading zero omitted, Abs format (unit mm)*
G04 Created by KiCad (PCBNEW 8.0.8) date 2025-07-06 22:48:32*
%MOMM*%
%LPD*%
G01*
G04 APERTURE LIST*
%TA.AperFunction,ComponentPad*%
%ADD10C,2.200000*%
%TD*%
%TA.AperFunction,ComponentPad*%
%ADD11R,1.508000X1.508000*%
%TD*%
%TA.AperFunction,ComponentPad*%
%ADD12C,1.508000*%
%TD*%
%TA.AperFunction,ComponentPad*%
%ADD13C,3.000000*%
%TD*%
%TA.AperFunction,ComponentPad*%
%ADD14R,1.700000X1.700000*%
%TD*%
%TA.AperFunction,ComponentPad*%
%ADD15O,1.700000X1.700000*%
%TD*%
%TA.AperFunction,ComponentPad*%
%ADD16C,1.408000*%
%TD*%
%TA.AperFunction,ComponentPad*%
%ADD17R,1.560000X1.560000*%
%TD*%
%TA.AperFunction,ComponentPad*%
%ADD18C,1.560000*%
%TD*%
%TA.AperFunction,ViaPad*%
%ADD19C,0.600000*%
%TD*%
%TA.AperFunction,Conductor*%
%ADD20C,0.200000*%
%TD*%
G04 APERTURE END LIST*
D10*
%TO.P,DOWN1,1,1*%
%TO.N,GND*%
X88106300Y-62150000D03*
%TO.P,DOWN1,2,2*%
%TO.N,SW4*%
X81756300Y-64690000D03*
%TD*%
%TO.P,UP1,1,1*%
%TO.N,GND*%
X87947500Y-24000000D03*
%TO.P,UP1,2,2*%
%TO.N,SW1*%
X81597500Y-26540000D03*
%TD*%
D11*
%TO.P,U2,1,GND*%
%TO.N,GND*%
X44190000Y-20500000D03*
D12*
%TO.P,U2,2,VCC_IN*%
%TO.N,+5V*%
X46730000Y-20500000D03*
%TO.P,U2,3,SCL*%
%TO.N,/I\u00B2C Clock*%
X49270000Y-20500000D03*
%TO.P,U2,4,SDA*%
%TO.N,/I\u00B2C Data*%
X51810000Y-20500000D03*
D13*
%TO.P,U2,S1*%
%TO.N,N/C*%
X37000000Y-21000000D03*
%TO.P,U2,S2*%
X59000000Y-21000000D03*
%TO.P,U2,S3*%
X59000000Y-43000000D03*
%TO.P,U2,S4*%
X37000000Y-43000000D03*
%TD*%
D10*
%TO.P,SELECT1,1,1*%
%TO.N,GND*%
X78000000Y-43050000D03*
%TO.P,SELECT1,2,2*%
%TO.N,SW2*%
X71650000Y-45590000D03*
%TD*%
%TO.P,CANCEL1,1,1*%
%TO.N,GND*%
X97050000Y-43050000D03*
%TO.P,CANCEL1,2,2*%
%TO.N,SW3*%
X90700000Y-45590000D03*
%TD*%
D14*
%TO.P,J2,1,Pin_1*%
%TO.N,+5V*%
X16000000Y-37000000D03*
D15*
%TO.P,J2,2,Pin_2*%
%TO.N,GND*%
X18540000Y-37000000D03*
%TD*%
D14*
%TO.P,J3,1,Pin_1*%
%TO.N,GND*%
X33000000Y-36800000D03*
D15*
%TO.P,J3,2,Pin_2*%
%TO.N,/Data*%
X33000000Y-34260000D03*
%TO.P,J3,3,Pin_3*%
%TO.N,Clock*%
X33000000Y-31720000D03*
%TO.P,J3,4,Pin_4*%
%TO.N,+5V*%
X33000000Y-29180000D03*
%TD*%
D16*
%TO.P,LS1,N*%
%TO.N,GND*%
X21500000Y-25200000D03*
%TO.P,LS1,P*%
%TO.N,Net-(U1-IO32)*%
X21500000Y-32800000D03*
%TD*%
D14*
%TO.P,J4,1,Pin_1*%
%TO.N,+5V*%
X16000000Y-47000000D03*
D15*
%TO.P,J4,2,Pin_2*%
%TO.N,GND*%
X18540000Y-47000000D03*
%TO.P,J4,3,Pin_3*%
%TO.N,Net-(J4-Pin_3)*%
X21080000Y-47000000D03*
%TD*%
D17*
%TO.P,U1,J2-1,3V3*%
%TO.N,+3.3V*%
X59100000Y-76700000D03*
D18*
%TO.P,U1,J2-2,EN*%
%TO.N,unconnected-(U1-EN-PadJ2-2)*%
X56560000Y-76700000D03*
%TO.P,U1,J2-3,SENSOR_VP*%
%TO.N,unconnected-(U1-SENSOR_VP-PadJ2-3)*%
X54020000Y-76700000D03*
%TO.P,U1,J2-4,SENSOR_VN*%
%TO.N,unconnected-(U1-SENSOR_VN-PadJ2-4)*%
X51480000Y-76700000D03*
%TO.P,U1,J2-5,IO34*%
%TO.N,unconnected-(U1-IO34-PadJ2-5)*%
X48940000Y-76700000D03*
%TO.P,U1,J2-6,IO35*%
%TO.N,unconnected-(U1-IO35-PadJ2-6)*%
X46400000Y-76700000D03*
%TO.P,U1,J2-7,IO32*%
%TO.N,Net-(U1-IO32)*%
X43860000Y-76700000D03*
%TO.P,U1,J2-8,IO33*%
%TO.N,Net-(J4-Pin_3)*%
X41320000Y-76700000D03*
%TO.P,U1,J2-9,IO25*%
%TO.N,SW1*%
X38780000Y-76700000D03*
%TO.P,U1,J2-10,IO26*%
%TO.N,unconnected-(U1-IO26-PadJ2-10)*%
X36240000Y-76700000D03*
%TO.P,U1,J2-11,IO27*%
%TO.N,Clock*%
X33700000Y-76700000D03*
%TO.P,U1,J2-12,IO14*%
%TO.N,Net-(J1-Pin_3)*%
X31160000Y-76700000D03*
%TO.P,U1,J2-13,IO12*%
%TO.N,unconnected-(U1-IO12-PadJ2-13)*%
X28620000Y-76700000D03*
%TO.P,U1,J2-14,GND1*%
%TO.N,unconnected-(U1-GND1-PadJ2-14)*%
X26080000Y-76700000D03*
%TO.P,U1,J2-15,IO13*%
%TO.N,unconnected-(U1-IO13-PadJ2-15)*%
X23540000Y-76700000D03*
%TO.P,U1,J2-16,SD2*%
%TO.N,unconnected-(U1-SD2-PadJ2-16)*%
X21000000Y-76700000D03*
%TO.P,U1,J2-17,SD3*%
%TO.N,unconnected-(U1-SD3-PadJ2-17)*%
X18460000Y-76700000D03*
%TO.P,U1,J2-18,CMD*%
%TO.N,unconnected-(U1-CMD-PadJ2-18)*%
X15920000Y-76700000D03*
%TO.P,U1,J2-19,EXT_5V*%
%TO.N,+5V*%
X13380000Y-76700000D03*
%TO.P,U1,J3-1,GND3*%
%TO.N,GND*%
X59100000Y-51300000D03*
%TO.P,U1,J3-2,IO23*%
%TO.N,unconnected-(U1-IO23-PadJ3-2)*%
X56560000Y-51300000D03*
%TO.P,U1,J3-3,IO22*%
%TO.N,/I\u00B2C Clock*%
X54020000Y-51300000D03*
%TO.P,U1,J3-4,TXD0*%
%TO.N,unconnected-(U1-TXD0-PadJ3-4)*%
X51480000Y-51300000D03*
%TO.P,U1,J3-5,RXD0*%
%TO.N,unconnected-(U1-RXD0-PadJ3-5)*%
X48940000Y-51300000D03*
%TO.P,U1,J3-6,IO21*%
%TO.N,/I\u00B2C Data*%
X46400000Y-51300000D03*
%TO.P,U1,J3-7,GND2*%
%TO.N,unconnected-(U1-GND2-PadJ3-7)*%
X43860000Y-51300000D03*
%TO.P,U1,J3-8,IO19*%
%TO.N,SW3*%
X41320000Y-51300000D03*
%TO.P,U1,J3-9,IO18*%
%TO.N,SW2*%
X38780000Y-51300000D03*
%TO.P,U1,J3-10,IO5*%
%TO.N,unconnected-(U1-IO5-PadJ3-10)*%
X36240000Y-51300000D03*
%TO.P,U1,J3-11,IO17*%
%TO.N,unconnected-(U1-IO17-PadJ3-11)*%
X33700000Y-51300000D03*
%TO.P,U1,J3-12,IO16*%
%TO.N,SW4*%
X31160000Y-51300000D03*
%TO.P,U1,J3-13,IO4*%
%TO.N,/Data*%
X28620000Y-51300000D03*
%TO.P,U1,J3-14,IO0*%
%TO.N,unconnected-(U1-IO0-PadJ3-14)*%
X26080000Y-51300000D03*
%TO.P,U1,J3-15,IO2*%
%TO.N,unconnected-(U1-IO2-PadJ3-15)*%
X23540000Y-51300000D03*
%TO.P,U1,J3-16,IO15*%
%TO.N,unconnected-(U1-IO15-PadJ3-16)*%
X21000000Y-51300000D03*
%TO.P,U1,J3-17,SD1*%
%TO.N,unconnected-(U1-SD1-PadJ3-17)*%
X18460000Y-51300000D03*
%TO.P,U1,J3-18,SD0*%
%TO.N,unconnected-(U1-SD0-PadJ3-18)*%
X15920000Y-51300000D03*
%TO.P,U1,J3-19,CLK*%
%TO.N,unconnected-(U1-CLK-PadJ3-19)*%
X13380000Y-51300000D03*
%TD*%
D14*
%TO.P,J1,1,Pin_1*%
%TO.N,GND*%
X16000000Y-42000000D03*
D15*
%TO.P,J1,2,Pin_2*%
%TO.N,+5V*%
X18540000Y-42000000D03*
%TO.P,J1,3,Pin_3*%
%TO.N,Net-(J1-Pin_3)*%
X21080000Y-42000000D03*
%TD*%
D19*
%TO.N,GND*%
X40000000Y-30000000D03*
X17000000Y-45000000D03*
X18575000Y-35050000D03*
X16000000Y-41000000D03*
X16000000Y-44000000D03*
X18000000Y-39000000D03*
X19500000Y-27500000D03*
%TO.N,SW4*%
X54050000Y-64700000D03*
%TO.N,+5V*%
X42000000Y-26000000D03*
%TO.N,Clock*%
X30000000Y-62000000D03*
X30000000Y-70000000D03*
X30000000Y-35000000D03*
X30000000Y-56000000D03*
%TO.N,/Data*%
X36000000Y-32000000D03*
X31000000Y-46000000D03*
%TO.N,Net-(U1-IO32)*%
X25000000Y-33000000D03*
X43860000Y-73775000D03*
%TO.N,SW1*%
X48725000Y-66575000D03*
%TO.N,SW2*%
X59000000Y-57000000D03*
%TO.N,SW3*%
X60000000Y-55000000D03*
%TO.N,/I\u00B2C Clock*%
X51000000Y-49000000D03*
%TO.N,/I\u00B2C Data*%
X51000000Y-47000000D03*
%TO.N,Net-(J4-Pin_3)*%
X37500000Y-71000000D03*
X41000000Y-73000000D03*
X22000000Y-56000000D03*
X27000000Y-61000000D03*
%TD*%
D20*
%TO.N,GND*%
X16000000Y-40000000D02*
X16000000Y-41000000D01*
X40000000Y-30000000D02*
X40000000Y-23000000D01*
X42500000Y-20500000D02*
X44190000Y-20500000D01*
X18575000Y-28425000D02*
X19500000Y-27500000D01*
X18575000Y-35050000D02*
X18575000Y-28425000D01*
X17000000Y-40000000D02*
X16000000Y-40000000D01*
X40000000Y-23000000D02*
X42500000Y-20500000D01*
X16000000Y-44000000D02*
X17000000Y-45000000D01*
X18000000Y-39000000D02*
X17000000Y-40000000D01*
%TO.N,SW4*%
X54050000Y-64700000D02*
X54060000Y-64690000D01*
X54060000Y-64690000D02*
X81756300Y-64690000D01*
%TO.N,+5V*%
X42000000Y-26000000D02*
X42000000Y-25230000D01*
X42000000Y-25230000D02*
X46730000Y-20500000D01*
%TO.N,Clock*%
X30000000Y-35000000D02*
X30000000Y-56000000D01*
X30000000Y-62000000D02*
X30000000Y-70000000D01*
%TO.N,/Data*%
X38000000Y-36000000D02*
X31000000Y-43000000D01*
X36000000Y-32000000D02*
X36000000Y-33000000D01*
X38000000Y-35000000D02*
X38000000Y-36000000D01*
X31000000Y-43000000D02*
X31000000Y-46000000D01*
X36000000Y-33000000D02*
X38000000Y-35000000D01*
%TO.N,Net-(U1-IO32)*%
X43860000Y-73775000D02*
X43860000Y-72935000D01*
X43860000Y-72935000D02*
X27325000Y-56400000D01*
X27325000Y-36050000D02*
X27325000Y-35325000D01*
X27325000Y-56400000D02*
X27325000Y-36050000D01*
X27325000Y-35325000D02*
X25000000Y-33000000D01*
%TO.N,SW1*%
X57850000Y-48731866D02*
X80041866Y-26540000D01*
X48725000Y-66500000D02*
X57850000Y-57375000D01*
X80041866Y-26540000D02*
X81597500Y-26540000D01*
X57850000Y-57375000D02*
X57850000Y-48731866D01*
X48725000Y-66575000D02*
X48725000Y-66500000D01*
%TO.N,SW2*%
X59000000Y-54000000D02*
X59000000Y-57000000D01*
X67410000Y-45590000D02*
X59000000Y-54000000D01*
X71650000Y-45590000D02*
X67410000Y-45590000D01*
%TO.N,SW3*%
X84777056Y-45590000D02*
X75367056Y-55000000D01*
X90700000Y-45590000D02*
X84777056Y-45590000D01*
X75367056Y-55000000D02*
X60000000Y-55000000D01*
%TO.N,/I\u00B2C Clock*%
X49000000Y-45540000D02*
X49270000Y-45270000D01*
X49270000Y-45270000D02*
X49270000Y-20500000D01*
X49000000Y-47000000D02*
X49000000Y-45540000D01*
X51000000Y-49000000D02*
X49000000Y-47000000D01*
%TO.N,/I\u00B2C Data*%
X51810000Y-20500000D02*
X51810000Y-46190000D01*
X51810000Y-46190000D02*
X51000000Y-47000000D01*
%TO.N,Net-(J4-Pin_3)*%
X39000000Y-71000000D02*
X41000000Y-73000000D01*
X37500000Y-71000000D02*
X39000000Y-71000000D01*
X22000000Y-56000000D02*
X27000000Y-61000000D01*
%TD*%
M02*
