%TF.GenerationSoftware,KiCad,Pcbnew,8.0.8*%
%TF.CreationDate,2025-07-06T22:48:51+02:00*%
%TF.ProjectId,custom locker,63757374-6f6d-4206-9c6f-636b65722e6b,rev?*%
%TF.SameCoordinates,Original*%
%TF.FileFunction,Soldermask,Bot*%
%TF.FilePolarity,Negative*%
%FSLAX46Y46*%
G04 Gerber Fmt 4.6, Leading zero omitted, Abs format (unit mm)*
G04 Created by KiCad (PCBNEW 8.0.8) date 2025-07-06 22:48:51*
%MOMM*%
%LPD*%
G01*
G04 APERTURE LIST*
G04 Aperture macros list*
%AMRoundRect*
0 Rectangle with rounded corners*
0 $1 Rounding radius*
0 $2 $3 $4 $5 $6 $7 $8 $9 X,Y pos of 4 corners*
0 Add a 4 corners polygon primitive as box body*
4,1,4,$2,$3,$4,$5,$6,$7,$8,$9,$2,$3,0*
0 Add four circle primitives for the rounded corners*
1,1,$1+$1,$2,$3*
1,1,$1+$1,$4,$5*
1,1,$1+$1,$6,$7*
1,1,$1+$1,$8,$9*
0 Add four rect primitives between the rounded corners*
20,1,$1+$1,$2,$3,$4,$5,0*
20,1,$1+$1,$4,$5,$6,$7,0*
20,1,$1+$1,$6,$7,$8,$9,0*
20,1,$1+$1,$8,$9,$2,$3,0*%
G04 Aperture macros list end*
%ADD10C,1.700000*%
%ADD11C,4.000000*%
%ADD12C,2.200000*%
%ADD13C,4.300000*%
%ADD14RoundRect,0.102000X-0.754000X-0.754000X0.754000X-0.754000X0.754000X0.754000X-0.754000X0.754000X0*%
%ADD15C,1.712000*%
%ADD16C,3.204000*%
%ADD17R,1.700000X1.700000*%
%ADD18O,1.700000X1.700000*%
%ADD19C,1.612000*%
%ADD20RoundRect,0.102000X0.780000X-0.780000X0.780000X0.780000X-0.780000X0.780000X-0.780000X-0.780000X0*%
%ADD21C,1.764000*%
G04 APERTURE END LIST*
D10*
%TO.C,DOWN1*%
X80486300Y-67230000D03*
D11*
X85566300Y-67230000D03*
D10*
X90646300Y-67230000D03*
D12*
X88106300Y-62150000D03*
X81756300Y-64690000D03*
%TD*%
D13*
%TO.C,H2*%
X99000000Y-17000000D03*
%TD*%
D10*
%TO.C,UP1*%
X80327500Y-29080000D03*
D11*
X85407500Y-29080000D03*
D10*
X90487500Y-29080000D03*
D12*
X87947500Y-24000000D03*
X81597500Y-26540000D03*
%TD*%
D14*
%TO.C,U2*%
X44190000Y-20500000D03*
D15*
X46730000Y-20500000D03*
X49270000Y-20500000D03*
X51810000Y-20500000D03*
D16*
X37000000Y-21000000D03*
X59000000Y-21000000D03*
X59000000Y-43000000D03*
X37000000Y-43000000D03*
%TD*%
D13*
%TO.C,H4*%
X99000000Y-83000000D03*
%TD*%
D10*
%TO.C,SELECT1*%
X70380000Y-48130000D03*
D11*
X75460000Y-48130000D03*
D10*
X80540000Y-48130000D03*
D12*
X78000000Y-43050000D03*
X71650000Y-45590000D03*
%TD*%
D10*
%TO.C,CANCEL1*%
X89430000Y-48130000D03*
D11*
X94510000Y-48130000D03*
D10*
X99590000Y-48130000D03*
D12*
X97050000Y-43050000D03*
X90700000Y-45590000D03*
%TD*%
D13*
%TO.C,H1*%
X17000000Y-17000000D03*
%TD*%
%TO.C,H3*%
X17000000Y-83000000D03*
%TD*%
D17*
%TO.C,J2*%
X16000000Y-37000000D03*
D18*
X18540000Y-37000000D03*
%TD*%
D17*
%TO.C,J3*%
X33000000Y-36800000D03*
D18*
X33000000Y-34260000D03*
X33000000Y-31720000D03*
X33000000Y-29180000D03*
%TD*%
D19*
%TO.C,LS1*%
X21500000Y-25200000D03*
X21500000Y-32800000D03*
%TD*%
D17*
%TO.C,J4*%
X16000000Y-47000000D03*
D18*
X18540000Y-47000000D03*
X21080000Y-47000000D03*
%TD*%
D20*
%TO.C,U1*%
X59100000Y-76700000D03*
D21*
X56560000Y-76700000D03*
X54020000Y-76700000D03*
X51480000Y-76700000D03*
X48940000Y-76700000D03*
X46400000Y-76700000D03*
X43860000Y-76700000D03*
X41320000Y-76700000D03*
X38780000Y-76700000D03*
X36240000Y-76700000D03*
X33700000Y-76700000D03*
X31160000Y-76700000D03*
X28620000Y-76700000D03*
X26080000Y-76700000D03*
X23540000Y-76700000D03*
X21000000Y-76700000D03*
X18460000Y-76700000D03*
X15920000Y-76700000D03*
X13380000Y-76700000D03*
X59100000Y-51300000D03*
X56560000Y-51300000D03*
X54020000Y-51300000D03*
X51480000Y-51300000D03*
X48940000Y-51300000D03*
X46400000Y-51300000D03*
X43860000Y-51300000D03*
X41320000Y-51300000D03*
X38780000Y-51300000D03*
X36240000Y-51300000D03*
X33700000Y-51300000D03*
X31160000Y-51300000D03*
X28620000Y-51300000D03*
X26080000Y-51300000D03*
X23540000Y-51300000D03*
X21000000Y-51300000D03*
X18460000Y-51300000D03*
X15920000Y-51300000D03*
X13380000Y-51300000D03*
%TD*%
D17*
%TO.C,J1*%
X16000000Y-42000000D03*
D18*
X18540000Y-42000000D03*
X21080000Y-42000000D03*
%TD*%
M02*
