M48
; DRILL file {KiCad 8.0.8} date 2025-07-06T22:49:49+0200
; FORMAT={-:-/ absolute / inch / decimal}
; #@! TF.CreationDate,2025-07-06T22:49:49+02:00
; #@! TF.GenerationSoftware,Kicad,Pcbnew,8.0.8
; #@! TF.FileFunction,Plated,1,2,PTH
FMAT,2
INCH
; #@! TA.AperFunction,Plated,PTH,ViaDrill
T1C0.0118
; #@! TA.AperFunction,Plated,PTH,ComponentDrill
T2C0.0354
; #@! TA.AperFunction,Plated,PTH,ComponentDrill
T3C0.0394
; #@! TA.AperFunction,Plated,PTH,ComponentDrill
T4C0.0409
; #@! TA.AperFunction,Plated,PTH,ComponentDrill
T5C0.0591
; #@! TA.AperFunction,Plated,PTH,ComponentDrill
T6C0.0787
%
G90
G05
T1
X0.6299Y-1.6142
X0.6299Y-1.7323
X0.6693Y-1.7717
X0.7087Y-1.5354
X0.7313Y-1.3799
X0.7677Y-1.0827
X0.8661Y-2.2047
X0.9843Y-1.2992
X1.063Y-2.4016
X1.1811Y-1.378
X1.1811Y-2.2047
X1.1811Y-2.4409
X1.1811Y-2.7559
X1.2205Y-1.811
X1.4173Y-1.2598
X1.4764Y-2.7953
X1.5748Y-1.1811
X1.6142Y-2.874
X1.6535Y-1.0236
X1.7268Y-2.9045
X1.9183Y-2.6211
X2.0079Y-1.8504
X2.0079Y-1.9291
X2.128Y-2.5472
X2.3228Y-2.2441
X2.3622Y-2.1654
T2
X0.8465Y-0.9921
X0.8465Y-1.2913
T3
X0.6299Y-1.4567
X0.6299Y-1.6535
X0.6299Y-1.8504
X0.7299Y-1.4567
X0.7299Y-1.6535
X0.7299Y-1.8504
X0.8299Y-1.6535
X0.8299Y-1.8504
X1.2992Y-1.1488
X1.2992Y-1.2488
X1.2992Y-1.3488
X1.2992Y-1.4488
X1.7398Y-0.8071
X1.8398Y-0.8071
X1.9398Y-0.8071
X2.0398Y-0.8071
T4
X0.5268Y-2.0197
X0.5268Y-3.0197
X0.6268Y-2.0197
X0.6268Y-3.0197
X0.7268Y-2.0197
X0.7268Y-3.0197
X0.8268Y-2.0197
X0.8268Y-3.0197
X0.9268Y-2.0197
X0.9268Y-3.0197
X1.0268Y-2.0197
X1.0268Y-3.0197
X1.1268Y-2.0197
X1.1268Y-3.0197
X1.2268Y-2.0197
X1.2268Y-3.0197
X1.3268Y-2.0197
X1.3268Y-3.0197
X1.4268Y-2.0197
X1.4268Y-3.0197
X1.5268Y-2.0197
X1.5268Y-3.0197
X1.6268Y-2.0197
X1.6268Y-3.0197
X1.7268Y-2.0197
X1.7268Y-3.0197
X1.8268Y-2.0197
X1.8268Y-3.0197
X1.9268Y-2.0197
X1.9268Y-3.0197
X2.0268Y-2.0197
X2.0268Y-3.0197
X2.1268Y-2.0197
X2.1268Y-3.0197
X2.2268Y-2.0197
X2.2268Y-3.0197
X2.3268Y-2.0197
X2.3268Y-3.0197
T5
X2.8209Y-1.7949
X3.0709Y-1.6949
X3.2125Y-1.0449
X3.2188Y-2.5469
X3.4625Y-0.9449
X3.4688Y-2.4469
X3.5709Y-1.7949
X3.8209Y-1.6949
T6
X1.4567Y-0.8268
X1.4567Y-1.6929
X2.3228Y-0.8268
X2.3228Y-1.6929
M30
